<svg width="40" height="40" viewBox="0 0 40 40" fill="none" xmlns="http://www.w3.org/2000/svg">
<path fill-rule="evenodd" clip-rule="evenodd" d="M39.9903 0.270225L30.2035 36.8334C30.1538 36.9993 29.9547 37.0491 29.8386 36.9329L23.2864 30.3771L28.1964 12.0541C28.2309 11.9392 28.1699 11.8322 28.0741 11.7938C28.1695 11.8325 28.23 11.9392 28.1957 12.0538L23.2858 30.3765L23.2861 30.3768L20.7648 39.8371C20.715 40.0031 20.516 40.0529 20.3998 39.9367L0.0632826 19.6054C-0.0528315 19.4892 -0.00306858 19.2901 0.162809 19.2403L9.61751 16.701L9.61743 16.7009L9.61774 16.7009L3.09917 10.1786C2.98306 10.0624 3.03282 9.86327 3.1987 9.81348L39.7249 0.00467391C39.8907 -0.02852 40.04 0.120853 39.9903 0.270225Z" fill="#00B37E"/>
</svg>
